<?xml version="1.0" standalone="no"?>
<!DOCTYPE svg PUBLIC "-//W3C//DTD SVG 20010904//EN"
 "http://www.w3.org/TR/2001/REC-SVG-20010904/DTD/svg10.dtd">
<svg version="1.0" xmlns="http://www.w3.org/2000/svg"
 width="256.000000pt" height="256.000000pt" viewBox="0 0 256.000000 256.000000"
 preserveAspectRatio="xMidYMid meet">

<g transform="translate(0.000000,256.000000) scale(0.100000,-0.100000)"
fill="#000000" stroke="none">
<path d="M1283 2352 c-13 -8 -15 -76 -14 -479 1 -187 3 -213 17 -213 14 0 15
23 12 193 l-3 192 635 5 635 5 -640 5 -640 5 -3 138 -3 137 641 0 c420 0 640
3 640 10 0 12 -1258 14 -1277 2z"/>
<path d="M200 2225 c0 -53 17 -66 55 -41 45 30 27 86 -27 86 -27 0 -28 -2 -28
-45z m60 20 c16 -19 3 -55 -21 -55 -15 0 -19 7 -19 35 0 37 18 47 40 20z"/>
<path d="M540 2223 c0 -26 4 -43 8 -37 4 6 17 16 30 23 33 17 26 55 -10 59
-27 3 -28 2 -28 -45z m46 26 c10 -17 -13 -36 -27 -22 -12 12 -4 33 11 33 5 0
12 -5 16 -11z"/>
<path d="M800 2254 c0 -8 -5 -12 -10 -9 -14 9 -40 -13 -40 -34 0 -25 18 -39
46 -33 21 4 24 10 24 48 0 24 -4 44 -10 44 -5 0 -10 -7 -10 -16z m0 -45 c0
-20 -24 -26 -35 -9 -8 13 14 42 26 34 5 -3 9 -14 9 -25z"/>
<path d="M920 2225 c0 -51 4 -54 31 -22 22 27 25 44 4 27 -13 -11 -15 -8 -15
14 0 14 -4 26 -10 26 -5 0 -10 -20 -10 -45z"/>
<path d="M377 2254 c-7 -7 2 -65 12 -77 4 -4 7 11 6 33 -1 40 -7 55 -18 44z"/>
<path d="M331 2224 c5 -14 7 -29 4 -34 -3 -5 -1 -11 5 -15 6 -4 10 8 10 28 0
21 -6 37 -15 40 -11 5 -12 1 -4 -19z"/>
<path d="M448 2238 c7 -7 12 -22 12 -35 0 -13 5 -23 10 -23 6 0 10 10 10 23 0
24 -17 47 -34 47 -6 0 -5 -5 2 -12z"/>
<path d="M682 2238 c-21 -21 -8 -68 19 -68 10 0 39 30 39 40 0 10 -29 40 -39
40 -4 0 -12 -5 -19 -12z m38 -28 c0 -13 -7 -20 -20 -20 -19 0 -27 20 -13 33
13 14 33 6 33 -13z"/>
<path d="M1638 2228 c-2 -13 -1 -36 3 -53 5 -24 7 -20 8 23 1 54 -4 68 -11 30z"/>
<path d="M1762 2200 c-1 -36 1 -50 7 -41 8 13 12 13 28 0 16 -13 17 -13 4 4
-11 14 -11 20 -1 32 9 10 9 15 1 15 -6 0 -11 -4 -11 -10 0 -25 -19 -6 -23 23
-2 20 -4 12 -5 -23z"/>
<path d="M2259 2245 c-4 -25 -1 -87 4 -92 4 -3 7 17 7 45 0 29 -2 52 -5 52 -3
0 -5 -2 -6 -5z"/>
<path d="M621 2208 c1 -22 3 -26 6 -13 3 11 10 26 15 33 8 9 6 12 -6 12 -12 0
-16 -9 -15 -32z"/>
<path d="M841 2213 c0 -17 4 -35 10 -38 15 -10 24 2 12 17 -6 7 -13 22 -16 33
-3 13 -5 9 -6 -12z"/>
<path d="M889 2238 c-8 -24 -7 -58 1 -58 5 0 10 14 10 30 0 17 -2 30 -5 30 -3
0 -5 -1 -6 -2z"/>
<path d="M1381 2193 c1 -27 3 -41 5 -33 3 9 15 20 27 25 25 11 30 46 7 53 -13
4 -13 3 -2 -11 16 -18 8 -37 -15 -37 -11 0 -14 7 -11 25 3 14 1 25 -3 25 -5 0
-8 -21 -8 -47z"/>
<path d="M1030 2212 c0 -4 21 -6 48 -4 82 5 89 9 20 11 -38 0 -68 -2 -68 -7z"/>
<path d="M2130 2213 c0 -6 6 -13 13 -16 9 -3 9 -9 -1 -26 -7 -11 -8 -21 -3
-21 19 0 24 42 7 58 -9 9 -16 11 -16 5z"/>
<path d="M2520 2195 c22 -23 40 -25 40 -4 0 6 -4 8 -9 5 -5 -3 -14 1 -21 9 -7
8 -17 15 -23 15 -6 0 0 -11 13 -25z"/>
<path d="M300 2196 c0 -8 4 -17 9 -21 6 -3 9 4 8 15 -1 23 -17 28 -17 6z"/>
<path d="M420 2196 c0 -8 4 -17 9 -21 6 -3 9 4 8 15 -1 23 -17 28 -17 6z"/>
<path d="M1460 2180 c0 -16 2 -30 4 -30 2 0 6 14 8 30 3 17 1 30 -4 30 -4 0
-8 -13 -8 -30z"/>
<path d="M1506 2193 c-4 -9 -1 -22 6 -29 11 -11 13 -8 13 16 0 33 -9 39 -19
13z"/>
<path d="M1550 2203 c5 -2 10 -13 10 -23 0 -10 -5 -21 -10 -23 -6 -3 -5 -4 2
-3 7 2 13 13 13 26 0 13 -6 24 -13 26 -7 1 -8 0 -2 -3z"/>
<path d="M1594 2195 c-8 -19 2 -45 16 -45 6 0 5 8 -2 20 -11 17 -10 22 2 30
10 7 11 10 2 10 -7 0 -15 -7 -18 -15z"/>
<path d="M1680 2180 c0 -16 4 -30 8 -30 5 0 7 14 4 30 -2 17 -6 30 -8 30 -2 0
-4 -13 -4 -30z"/>
<path d="M1870 2202 c0 -4 9 -15 20 -25 11 -9 20 -12 20 -7 0 6 -7 13 -15 16
-8 4 -12 10 -9 15 3 5 0 9 -5 9 -6 0 -11 -3 -11 -8z"/>
<path d="M1930 2180 c0 -16 2 -30 4 -30 2 0 6 14 8 30 3 17 1 30 -4 30 -4 0
-8 -13 -8 -30z"/>
<path d="M1970 2180 c0 -16 2 -30 4 -30 2 0 6 14 8 30 3 17 1 30 -4 30 -4 0
-8 -13 -8 -30z"/>
<path d="M2006 2202 c7 -4 14 -18 17 -32 4 -21 4 -20 6 8 1 24 -3 32 -16 32
-12 0 -14 -3 -7 -8z"/>
<path d="M2058 2180 c2 -16 6 -30 8 -30 2 0 4 14 4 30 0 17 -4 30 -8 30 -5 0
-7 -13 -4 -30z"/>
<path d="M2093 2165 c0 -25 3 -45 7 -45 4 0 10 20 12 45 2 26 -1 45 -7 45 -6
0 -11 -20 -12 -45z"/>
<path d="M2187 2203 c-9 -9 -9 -41 1 -46 4 -3 7 8 7 24 1 32 1 32 -8 22z"/>
<path d="M2221 2194 c0 -11 3 -14 6 -6 3 7 2 16 -1 19 -3 4 -6 -2 -5 -13z"/>
<path d="M960 2185 c7 -9 15 -13 17 -11 7 7 -7 26 -19 26 -6 0 -6 -6 2 -15z"/>
<path d="M1390 1980 c0 -5 7 -10 15 -10 11 0 15 -11 15 -40 0 -22 5 -40 10
-40 6 0 10 18 10 40 0 29 4 40 15 40 8 0 15 5 15 10 0 6 -18 10 -40 10 -22 0
-40 -4 -40 -10z"/>
<path d="M1490 1979 c0 -5 5 -7 10 -4 6 3 10 8 10 11 0 2 -4 4 -10 4 -5 0 -10
-5 -10 -11z"/>
<path d="M1740 1940 c0 -27 5 -50 10 -50 6 0 10 6 10 13 0 8 11 19 25 25 45
21 28 62 -26 62 -16 0 -19 -7 -19 -50z m48 18 c-6 -18 -28 -21 -28 -4 0 9 7
16 16 16 9 0 14 -5 12 -12z"/>
<path d="M2030 1976 c0 -8 -10 -16 -22 -18 -17 -2 -24 -11 -26 -30 -2 -16 0
-29 5 -29 66 -9 63 -12 63 42 0 27 -4 49 -10 49 -5 0 -10 -6 -10 -14z m0 -52
c0 -8 -7 -14 -15 -14 -15 0 -21 21 -9 33 10 9 24 -2 24 -19z"/>
<path d="M2160 1940 c0 -27 5 -50 10 -50 6 0 10 7 10 15 0 8 5 15 10 15 6 0
10 -7 10 -15 0 -8 4 -15 9 -15 5 0 9 16 8 35 -1 19 -5 35 -9 35 -4 0 -8 -4 -8
-10 0 -5 -4 -10 -10 -10 -5 0 -10 11 -10 25 0 14 -4 25 -10 25 -5 0 -10 -22
-10 -50z"/>
<path d="M1489 1955 c-5 -27 -1 -59 9 -63 8 -2 12 9 12 32 0 20 -4 36 -10 36
-5 0 -10 -2 -11 -5z"/>
<path d="M1530 1911 c0 -28 5 -51 10 -51 6 0 10 6 10 13 0 7 10 17 23 22 14 7
22 19 22 35 0 21 -5 26 -32 28 l-33 3 0 -50z m42 7 c-15 -15 -26 -4 -18 18 5
13 9 15 18 6 9 -9 9 -15 0 -24z"/>
<path d="M1627 1954 c-13 -13 -7 -52 9 -58 23 -9 34 -7 34 4 0 6 -6 10 -13 10
-8 0 -14 6 -14 14 0 8 8 11 20 8 14 -3 18 -1 15 9 -5 15 -40 24 -51 13z"/>
<path d="M1830 1925 c0 -19 5 -35 10 -35 6 0 10 9 10 19 0 11 7 27 16 35 14
15 13 16 -10 16 -23 0 -26 -4 -26 -35z"/>
<path d="M1897 1954 c-15 -15 -7 -53 13 -59 27 -8 52 12 48 39 -3 21 -46 35
-61 20z m43 -30 c0 -8 -7 -14 -15 -14 -15 0 -21 21 -9 33 10 9 24 -2 24 -19z"/>
<path d="M2072 1928 c3 -29 6 -33 33 -33 27 0 30 4 33 33 4 35 -15 45 -20 10
-5 -32 -28 -35 -28 -4 0 14 -5 26 -11 26 -6 0 -9 -14 -7 -32z"/>
<path d="M1310 1750 l0 -90 460 0 c404 0 459 2 454 15 -4 8 -12 15 -19 15 -8
0 -15 14 -18 33 l-4 32 -1 -32 c-3 -44 -32 -46 -32 -3 0 17 -4 30 -10 30 -5 0
-10 -13 -10 -29 l0 -30 -65 0 c-50 0 -65 4 -65 15 0 8 5 14 11 14 8 0 8 5 -1
15 -17 20 3 45 36 45 15 0 24 6 24 16 0 18 -34 11 -61 -12 -9 -8 -18 -12 -21
-9 -3 3 -12 -5 -21 -18 -14 -22 -14 -26 10 -51 24 -26 28 -27 118 -24 52 1 96
0 100 -3 10 -11 -209 -8 -222 3 -7 6 -58 10 -115 10 -56 -1 -107 3 -114 9 -8
7 -14 7 -19 -1 -9 -14 -50 -13 -63 3 -5 6 -12 21 -15 32 -3 13 -5 9 -6 -12 -1
-26 -5 -33 -21 -33 -15 0 -20 7 -21 28 0 15 -3 21 -6 15 -2 -7 -11 -13 -19
-13 -8 0 -14 -7 -14 -15 0 -8 -7 -15 -15 -15 -12 0 -15 13 -15 60 0 60 0 60
30 60 18 0 33 -7 39 -18 8 -14 20 -17 66 -15 41 2 57 -1 61 -12 5 -13 8 -13
21 0 8 8 21 15 28 15 9 0 12 6 9 15 -5 13 -8 13 -21 0 -16 -17 -43 -20 -43 -5
0 14 -33 13 -48 -2 -9 -9 -12 -9 -12 1 0 9 -9 12 -24 9 -15 -3 -27 0 -30 8 -4
10 73 13 397 13 563 0 557 0 557 11 0 7 -211 10 -625 10 l-625 -1 0 -89z m212
5 c-4 -72 12 -93 47 -61 16 14 19 15 24 3 4 -12 39 -15 187 -15 100 0 185 -3
188 -7 4 -4 -114 -5 -263 -1 -148 3 -296 5 -327 6 l-58 0 0 70 0 70 103 0 102
0 -3 -65z m471 -19 c6 -16 -2 -28 -14 -20 -12 7 -11 34 0 34 5 0 11 -6 14 -14z"/>
<path d="M262 1798 c-7 -7 -12 -17 -12 -24 0 -6 -7 -17 -15 -24 -8 -7 -12 -16
-9 -21 3 -5 0 -9 -7 -9 -7 0 -9 -3 -6 -7 4 -3 17 3 30 14 12 11 31 23 41 27
18 6 18 7 1 20 -10 7 -15 18 -11 24 9 15 3 15 -12 0z"/>
<path d="M1820 1795 c0 -8 7 -15 15 -15 10 0 15 -10 15 -30 0 -16 5 -30 10
-30 6 0 10 14 10 31 0 24 4 30 15 25 10 -4 15 1 15 14 0 25 -15 26 -29 3 -10
-17 -12 -17 -25 0 -16 21 -26 22 -26 2z"/>
<path d="M1941 1803 c-1 -6 -4 -19 -7 -28 -6 -15 -4 -15 15 -4 11 8 21 17 21
22 0 4 -4 6 -9 3 -5 -4 -12 0 -14 6 -4 9 -6 9 -6 1z"/>
<path d="M2100 1795 c0 -14 37 -21 78 -16 8 1 20 -3 28 -10 8 -6 14 -7 14 -1
0 19 -27 31 -63 29 -20 -2 -37 0 -37 5 0 4 -4 8 -10 8 -5 0 -10 -7 -10 -15z"/>
<path d="M2336 1795 c-20 -11 -33 -12 -40 -5 -13 13 -66 13 -66 0 0 -5 13 -10
29 -10 17 0 32 -4 36 -10 4 -6 15 -5 30 2 19 8 28 8 40 -2 13 -11 15 -9 15 14
0 30 -5 31 -44 11z"/>
<path d="M2423 1750 c0 -36 2 -50 4 -32 2 17 2 47 0 65 -2 17 -4 3 -4 -33z"/>
<path d="M1560 1764 c0 -8 5 -12 10 -9 6 4 8 11 5 16 -9 14 -15 11 -15 -7z"/>
<path d="M1680 1735 c0 -8 7 -15 15 -15 8 0 15 7 15 15 0 8 -7 15 -15 15 -8 0
-15 -7 -15 -15z"/>
<path d="M1770 1735 c0 -8 4 -15 8 -15 5 0 9 7 9 15 0 8 -4 15 -9 15 -4 0 -8
-7 -8 -15z"/>
<path d="M2040 1746 c0 -2 7 -6 15 -10 8 -3 15 -1 15 4 0 6 -7 10 -15 10 -8 0
-15 -2 -15 -4z"/>
<path d="M2260 1735 c0 -8 5 -15 10 -15 6 0 10 7 10 15 0 8 -4 15 -10 15 -5 0
-10 -7 -10 -15z"/>
<path d="M2295 1700 c-3 -5 -14 -10 -24 -10 -10 0 -18 -7 -18 -15 0 -12 17
-15 93 -15 64 0 94 -4 97 -12 4 -10 6 -10 6 0 1 6 12 12 25 12 13 0 27 -6 29
-12 4 -10 6 -10 6 0 1 6 8 12 16 12 8 0 15 -6 15 -12 0 -9 4 -8 10 2 5 8 10
17 10 20 0 3 -37 4 -81 2 -57 -3 -79 -1 -75 7 7 11 -10 15 -52 11 -13 -1 -29
4 -37 10 -9 7 -15 8 -20 0z m68 -27 c-7 -2 -21 -2 -30 0 -10 3 -4 5 12 5 17 0
24 -2 18 -5z"/>
<path d="M228 1368 l-28 -32 22 -23 c12 -13 27 -23 33 -23 18 0 68 57 57 64
-6 4 -13 2 -17 -4 -3 -5 -3 -10 1 -10 4 0 -6 -10 -20 -21 -28 -22 -28 -22 -48
-2 -19 20 -19 20 11 46 31 25 38 37 24 37 -5 0 -20 -15 -35 -32z"/>
<path d="M197 973 c-4 -3 -7 -23 -7 -43 l0 -37 65 0 c65 0 65 0 65 29 0 18 -5
28 -15 28 -9 0 -18 7 -21 15 -6 15 -74 22 -87 8z"/>
<path d="M266 561 c-4 -5 4 -7 16 -3 18 4 20 2 15 -18 -4 -16 -3 -20 5 -12 6
6 8 18 5 26 -7 17 -32 21 -41 7z"/>
<path d="M210 483 c0 -22 22 -26 38 -7 16 17 16 17 -1 4 -16 -12 -20 -12 -28
1 -5 9 -9 10 -9 2z"/>
<path d="M200 144 c0 -13 7 -16 38 -11 21 2 46 0 55 -5 14 -7 17 -5 17 12 0
18 -6 20 -55 20 -44 0 -55 -3 -55 -16z"/>
<path d="M255 110 c-3 -5 3 -10 15 -10 12 0 18 5 15 10 -3 6 -10 10 -15 10 -5
0 -12 -4 -15 -10z"/>
<path d="M258 83 c6 -2 18 -2 25 0 6 3 1 5 -13 5 -14 0 -19 -2 -12 -5z"/>
</g>
</svg>
